<?xml version="1.0" encoding="UTF-8"?>
<svg xmlns="http://www.w3.org/2000/svg" viewBox="0 0 64 64">
  <rect x="8" y="4" width="48" height="56" rx="6" ry="6" fill="#2c3e50" stroke="#1b2631" stroke-width="2"/>
  <rect x="14" y="10" width="36" height="12" rx="2" ry="2" fill="#ecf0f1" stroke="#bdc3c7" stroke-width="1"/>
  <text x="46" y="20" font-family="Consolas, monospace" font-size="9" text-anchor="end" fill="#2c3e50">123</text>
  <g fill="#ecf0f1">
    <rect x="14" y="26" width="8" height="6" rx="1"/>
    <rect x="24" y="26" width="8" height="6" rx="1"/>
    <rect x="34" y="26" width="8" height="6" rx="1"/>
    <rect x="44" y="26" width="6" height="6" rx="1" fill="#e67e22"/>

    <rect x="14" y="34" width="8" height="6" rx="1"/>
    <rect x="24" y="34" width="8" height="6" rx="1"/>
    <rect x="34" y="34" width="8" height="6" rx="1"/>
    <rect x="44" y="34" width="6" height="6" rx="1" fill="#e67e22"/>

    <rect x="14" y="42" width="8" height="6" rx="1"/>
    <rect x="24" y="42" width="8" height="6" rx="1"/>
    <rect x="34" y="42" width="8" height="6" rx="1"/>
    <rect x="44" y="42" width="6" height="6" rx="1" fill="#e67e22"/>

    <rect x="14" y="50" width="18" height="6" rx="1"/>
    <rect x="34" y="50" width="8" height="6" rx="1"/>
    <rect x="44" y="50" width="6" height="6" rx="1" fill="#27ae60"/>
  </g>
</svg>
